<?xml version="1.0" standalone="no"?>
<!DOCTYPE svg PUBLIC "-//W3C//DTD SVG 20010904//EN"
 "http://www.w3.org/TR/2001/REC-SVG-20010904/DTD/svg10.dtd">
<svg version="1.0" xmlns="http://www.w3.org/2000/svg"
 width="1353.000000pt" height="382.000000pt" viewBox="0 0 1353.000000 382.000000"
 preserveAspectRatio="xMidYMid meet">

<g transform="translate(0.000000,382.000000) scale(0.100000,-0.100000)"
fill="#000000" stroke="none">
<path d="M1805 3814 c-75 -6 -236 -25 -251 -31 -20 -8 -93 -118 -129 -196 -61
-132 -80 -223 -79 -382 1 -110 6 -157 23 -219 22 -82 80 -219 90 -214 3 2 50
36 105 77 119 89 274 183 584 356 232 129 403 245 450 304 80 104 4 191 -216
247 -157 40 -437 68 -577 58z"/>
<path d="M3456 3436 c-108 -40 -156 -158 -106 -261 65 -135 264 -136 329 -2
43 88 15 196 -62 242 -54 31 -112 39 -161 21z"/>
<path d="M12220 2879 l0 -251 -42 36 c-150 129 -405 90 -515 -79 -45 -68 -72
-153 -85 -270 -11 -107 -5 -335 12 -420 25 -121 113 -248 205 -294 84 -42 236
-47 308 -10 43 22 89 62 118 102 l29 40 0 -71 0 -72 140 0 140 0 0 770 0 770
-155 0 -155 0 0 -251z m-83 -437 c17 -12 41 -45 54 -74 22 -49 24 -66 24 -218
0 -183 -11 -233 -63 -283 -56 -53 -170 -51 -216 4 -42 50 -56 117 -56 274 0
250 44 331 176 322 32 -2 62 -12 81 -25z"/>
<path d="M3391 2905 c-77 -70 -153 -255 -231 -565 -43 -171 -115 -363 -161
-433 l-30 -46 17 -68 c48 -193 142 -405 257 -577 40 -59 59 -95 49 -92 -113
32 -282 56 -409 56 -249 0 -533 -71 -740 -186 l-61 -34 -34 53 c-39 61 -159
206 -215 260 -35 33 -49 39 -109 48 -38 5 -91 16 -118 24 -74 22 -152 19 -211
-9 -95 -44 -131 -118 -81 -165 23 -22 146 -60 318 -100 103 -24 78 -26 -56 -5
-123 19 -199 37 -291 71 -41 14 -101 27 -145 30 -63 4 -80 1 -107 -16 -49 -31
-68 -66 -54 -97 13 -29 101 -73 200 -100 83 -23 70 -29 -18 -8 -40 9 -80 14
-89 11 -9 -3 -44 -15 -77 -27 -33 -11 -94 -24 -136 -27 -70 -5 -78 -4 -99 17
-18 18 -21 29 -15 58 14 76 45 102 237 201 171 87 291 168 400 271 l83 78 -76
36 c-97 45 -207 81 -333 108 -85 19 -134 22 -306 23 -221 0 -312 -13 -488 -72
-94 -31 -222 -89 -222 -100 0 -22 54 -204 86 -290 175 -471 564 -877 1030
-1074 532 -226 1077 -210 1599 46 414 202 755 570 924 998 165 417 180 885 41
1306 -68 208 -158 378 -218 414 -44 25 -67 21 -111 -18z"/>
<path d="M9350 2731 c-75 -23 -136 -75 -175 -150 l-24 -46 -1 93 0 92 -135 0
-135 0 0 -565 0 -565 149 0 150 0 3 343 3 342 25 45 c35 62 87 88 200 103 l90
11 0 153 0 153 -62 -1 c-35 0 -74 -4 -88 -8z"/>
<path d="M9823 2725 c-160 -45 -254 -135 -316 -305 -28 -76 -36 -370 -14 -477
57 -266 270 -410 552 -373 190 26 314 133 381 330 16 46 19 86 19 250 0 175
-2 202 -23 267 -44 140 -139 243 -271 294 -73 28 -251 36 -328 14z m228 -278
c19 -12 45 -44 59 -72 23 -45 25 -64 28 -198 4 -165 -5 -221 -45 -279 -46 -68
-158 -88 -222 -40 -72 53 -97 149 -89 341 5 109 8 127 34 178 35 68 76 93 150
93 36 0 61 -7 85 -23z"/>
<path d="M11030 2731 c-59 -13 -115 -48 -164 -102 l-46 -51 0 71 0 71 -135 0
-135 0 0 -565 0 -565 150 0 150 0 0 373 c0 340 2 375 19 412 10 22 29 50 42
61 75 66 200 46 247 -39 15 -29 17 -74 20 -419 l3 -388 150 0 150 0 -3 448 -3
447 -26 56 c-57 122 -165 191 -304 195 -44 2 -96 -1 -115 -5z"/>
<path d="M12949 2726 c-159 -46 -280 -171 -304 -313 l-7 -43 154 0 154 0 11
30 c16 42 67 70 128 70 102 0 132 -40 142 -184 3 -53 3 -96 0 -96 -3 0 -28 11
-55 25 -89 45 -251 51 -354 13 -95 -34 -177 -120 -205 -217 -20 -71 -11 -176
22 -248 28 -63 104 -139 163 -165 132 -59 321 -37 423 49 l29 25 0 -41 0 -41
141 0 141 0 -4 413 c-4 405 -4 413 -27 472 -13 33 -39 81 -58 107 -37 51 -133
121 -191 139 -58 17 -249 21 -303 5z m209 -706 c42 -19 72 -63 72 -106 0 -32
-33 -85 -64 -101 -42 -22 -160 -22 -203 1 -88 45 -81 172 11 212 46 20 134 17
184 -6z"/>
<path d="M4540 2679 c-53 -16 -138 -78 -173 -125 -18 -24 -35 -43 -39 -44 -5
0 -8 36 -8 80 l0 80 -50 0 -50 0 0 -540 0 -540 55 0 55 0 0 373 c0 360 1 374
22 436 27 76 86 142 156 174 71 33 200 31 267 -4 55 -28 107 -89 127 -147 9
-26 13 -152 16 -434 l3 -398 50 0 50 0 -3 423 c-3 418 -3 423 -27 479 -28 68
-93 138 -159 169 -39 19 -66 24 -152 26 -58 1 -121 -2 -140 -8z"/>
<path d="M5487 2680 c-142 -36 -243 -141 -293 -305 -24 -77 -27 -389 -5 -475
35 -137 107 -232 219 -287 75 -38 77 -38 196 -38 114 0 125 2 186 31 36 17 79
43 97 58 45 38 98 121 124 197 22 59 24 80 24 269 0 229 -10 277 -79 384 -42
66 -84 101 -166 140 -57 27 -77 31 -165 33 -55 1 -117 -2 -138 -7z m234 -106
c97 -31 174 -134 198 -268 15 -84 13 -288 -4 -369 -17 -84 -68 -181 -111 -214
-116 -88 -309 -82 -413 13 -41 37 -85 118 -100 186 -29 129 -21 376 16 470 26
68 85 141 135 165 81 41 183 47 279 17z"/>
<path d="M6370 2672 c-144 -49 -212 -134 -212 -266 -1 -162 78 -235 342 -315
261 -79 320 -122 320 -230 0 -89 -75 -167 -185 -192 -79 -18 -210 -8 -265 20
-78 40 -125 96 -140 166 -5 28 -9 30 -59 33 l-54 3 7 -43 c13 -79 61 -155 134
-206 87 -62 286 -90 411 -58 159 41 248 131 258 261 14 169 -76 251 -377 341
-152 45 -185 59 -228 91 -83 63 -84 187 -1 257 40 34 67 45 139 57 104 17 224
-16 282 -78 27 -29 58 -100 58 -134 0 -16 8 -19 51 -19 l52 0 -6 54 c-11 111
-86 205 -196 247 -80 31 -254 37 -331 11z"/>
<path d="M7250 2672 c-144 -49 -212 -134 -212 -266 -1 -162 78 -235 342 -315
261 -79 320 -122 320 -230 0 -89 -75 -167 -185 -192 -79 -18 -210 -8 -265 20
-78 40 -125 96 -140 166 -5 28 -9 30 -59 33 l-54 3 7 -43 c13 -79 61 -155 134
-206 87 -62 286 -90 411 -58 159 41 248 131 258 261 14 169 -76 251 -377 341
-152 45 -185 59 -228 91 -83 63 -84 187 -1 257 40 34 67 45 139 57 104 17 224
-16 282 -78 27 -29 58 -100 58 -134 0 -16 8 -19 51 -19 l52 0 -6 54 c-11 111
-86 205 -196 247 -80 31 -254 37 -331 11z"/>
<path d="M8219 2681 c-59 -12 -149 -61 -191 -105 -51 -52 -78 -105 -85 -167
l-6 -49 51 0 50 0 12 51 c18 75 85 141 164 164 114 33 242 6 315 -66 62 -62
74 -105 79 -284 l4 -159 -39 35 c-86 78 -219 111 -363 91 -97 -14 -158 -40
-216 -94 -64 -59 -94 -125 -94 -209 0 -128 58 -222 173 -279 100 -49 266 -58
386 -21 43 13 106 55 137 90 l23 26 1 -62 0 -63 50 0 50 0 0 368 c0 222 -4
392 -11 428 -21 114 -97 222 -189 269 -81 40 -202 55 -301 36z m249 -601 c107
-46 163 -148 140 -254 -15 -70 -84 -139 -164 -162 -74 -21 -194 -21 -267 0
-101 29 -176 119 -177 212 0 58 45 142 95 176 90 62 265 75 373 28z"/>
<path d="M2752 2437 c-29 -17 -57 -56 -46 -67 8 -7 183 -60 198 -60 3 0 6 11
6 25 0 81 -90 139 -158 102z m15 -73 c-3 -3 -12 -4 -19 -1 -8 3 -5 6 6 6 11 1
17 -2 13 -5z"/>
<path d="M11780 1240 c-9 -17 -8 -20 13 -20 13 0 32 9 42 20 18 20 17 20 -13
20 -21 0 -35 -7 -42 -20z"/>
<path d="M9217 1166 c-132 -49 -158 -209 -43 -268 22 -12 78 -32 124 -44 132
-35 166 -70 137 -140 -17 -42 -63 -64 -132 -64 -51 0 -138 34 -162 64 -13 15
-16 15 -37 -5 -23 -22 -23 -23 -6 -42 9 -10 40 -31 67 -45 42 -22 64 -26 135
-27 72 0 91 4 127 24 71 41 99 122 69 196 -18 43 -60 69 -151 96 -131 38 -155
49 -170 80 -13 25 -14 33 -1 62 30 74 142 87 236 29 l50 -31 17 26 c16 24 16
26 -3 40 -72 54 -185 76 -257 49z"/>
<path d="M9819 1174 c-45 -8 -131 -67 -166 -112 -113 -149 -63 -353 110 -444
60 -32 184 -32 244 0 66 35 110 78 140 140 23 47 28 70 28 132 -1 64 -5 83
-30 128 -52 96 -135 150 -238 157 -34 2 -74 1 -88 -1z m156 -73 c147 -68 184
-262 72 -380 -142 -149 -389 -45 -390 164 0 165 174 283 318 216z"/>
<path d="M10270 885 l0 -285 190 0 190 0 0 30 0 29 -157 3 -158 3 -3 253 -2
252 -30 0 -30 0 0 -285z"/>
<path d="M10740 885 l0 -285 30 0 30 0 0 285 0 285 -30 0 -30 0 0 -285z"/>
<path d="M10960 885 l0 -287 143 3 c131 4 146 6 199 32 61 30 96 65 131 131
16 32 21 58 21 121 0 63 -5 89 -21 121 -35 66 -70 101 -131 131 -53 26 -68 28
-199 32 l-143 3 0 -287z m315 198 c51 -27 80 -58 101 -108 32 -77 15 -186 -39
-243 -46 -50 -95 -66 -209 -70 l-108 -4 0 227 0 227 108 -4 c84 -3 116 -9 147
-25z"/>
<path d="M11685 1018 c-37 -84 -94 -213 -126 -285 l-58 -133 35 0 c32 0 35 3
63 65 l30 65 159 0 159 0 28 -65 c26 -62 29 -65 61 -65 19 0 34 2 34 3 0 2
-55 129 -123 283 l-124 279 -35 3 -35 3 -68 -153z m173 -88 l59 -135 -125 -3
c-68 -1 -127 0 -130 2 -3 3 23 69 58 146 35 78 67 137 71 133 5 -5 35 -69 67
-143z"/>
<path d="M12160 885 l0 -285 30 0 29 0 3 103 3 102 77 3 76 3 74 -103 c70 -97
76 -103 112 -106 l38 -3 -66 95 c-75 107 -84 126 -64 126 30 0 99 56 118 96
34 70 21 142 -36 196 -50 46 -101 58 -255 58 l-139 0 0 -285z m291 215 c53
-15 92 -60 92 -108 0 -89 -59 -122 -218 -122 l-105 0 0 113 c0 63 3 117 7 120
10 11 184 8 224 -3z"/>
<path d="M12700 885 l0 -285 30 0 30 0 0 285 0 285 -30 0 -30 0 0 -285z"/>
<path d="M13045 1018 c-37 -84 -94 -213 -126 -285 l-58 -133 35 0 c32 0 35 3
63 65 l30 65 159 0 159 0 28 -65 c26 -62 29 -65 61 -65 19 0 34 2 34 3 0 2
-55 129 -123 283 l-124 279 -35 3 -35 3 -68 -153z m173 -88 l59 -135 -125 -3
c-68 -1 -127 0 -130 2 -3 3 23 69 58 146 35 78 67 137 71 133 5 -5 35 -69 67
-143z"/>
</g>
</svg>
